<svg xmlns="http://www.w3.org/2000/svg" xmlns:xlink="http://www.w3.org/1999/xlink" width="500" zoomAndPan="magnify" viewBox="0 0 375 149.999998" height="200" preserveAspectRatio="xMidYMid meet" version="1.2"><defs><clipPath id="285d940829"><path d="M 109.820312 1 L 172.632812 1 L 172.632812 30 L 109.820312 30 Z M 109.820312 1 "/></clipPath></defs><g id="25377ee5c8"><g style="fill:#ffffff;fill-opacity:1;"><g transform="translate(14.575198, 123.281245)"><path style="stroke:none" d="M 5.703125 -99.3125 L 51.390625 -99.3125 C 52.710938 -99.3125 53.375 -98.648438 53.375 -97.328125 L 53.375 -84.90625 C 53.375 -83.582031 52.710938 -82.921875 51.390625 -82.921875 L 37 -82.921875 L 37 -1.984375 C 37 -0.660156 36.332031 0 35 0 L 22.09375 0 C 20.769531 0 20.109375 -0.660156 20.109375 -1.984375 L 20.109375 -82.921875 L 5.703125 -82.921875 C 4.378906 -82.921875 3.71875 -83.582031 3.71875 -84.90625 L 3.71875 -97.328125 C 3.71875 -98.648438 4.378906 -99.3125 5.703125 -99.3125 Z M 5.703125 -99.3125 "/></g></g><g style="fill:#ffffff;fill-opacity:1;"><g transform="translate(71.675391, 123.281245)"><path style="stroke:none" d="M 55.859375 -69.015625 L 55.859375 -44.0625 C 55.859375 -36.863281 53.539062 -31.816406 48.90625 -28.921875 L 55.359375 -2.234375 C 55.773438 -0.742188 55.195312 0 53.625 0 L 41.46875 0 C 40.300781 0 39.597656 -0.578125 39.359375 -1.734375 L 33.390625 -26.1875 L 22.34375 -26.1875 L 22.34375 -1.984375 C 22.34375 -0.660156 21.679688 0 20.359375 0 L 8.1875 0 C 6.863281 0 6.203125 -0.660156 6.203125 -1.984375 L 6.203125 -84.90625 C 6.203125 -86.238281 6.863281 -86.90625 8.1875 -86.90625 L 37.984375 -86.90625 C 43.859375 -86.90625 48.304688 -85.394531 51.328125 -82.375 C 54.347656 -79.351562 55.859375 -74.898438 55.859375 -69.015625 Z M 22.34375 -42.203125 L 34.765625 -42.203125 C 38.066406 -42.203125 39.71875 -43.859375 39.71875 -47.171875 L 39.71875 -65.921875 C 39.71875 -69.234375 38.066406 -70.890625 34.765625 -70.890625 L 22.34375 -70.890625 Z M 22.34375 -42.203125 "/></g></g><g style="fill:#ffffff;fill-opacity:1;"><g transform="translate(133.740817, 123.281245)"><path style="stroke:none" d="M 8.1875 0 L 21.109375 0 C 22.429688 0 23.09375 -0.660156 23.09375 -1.984375 L 23.09375 -84.90625 C 23.09375 -86.238281 22.429688 -86.90625 21.109375 -86.90625 L 8.1875 -86.90625 C 6.863281 -86.90625 6.203125 -86.238281 6.203125 -84.90625 L 6.203125 -1.984375 C 6.203125 -0.660156 6.863281 0 8.1875 0 Z M 8.1875 0 "/></g></g><g style="fill:#ffffff;fill-opacity:1;"><g transform="translate(163.035701, 123.281245)"><path style="stroke:none" d="M 6.203125 -17.875 L 6.203125 -69.015625 C 6.203125 -74.898438 7.734375 -79.351562 10.796875 -82.375 C 13.859375 -85.394531 18.285156 -86.90625 24.078125 -86.90625 L 37.984375 -86.90625 C 43.859375 -86.90625 48.304688 -85.394531 51.328125 -82.375 C 54.347656 -79.351562 55.859375 -74.898438 55.859375 -69.015625 L 55.859375 -17.875 C 55.859375 -12.082031 54.347656 -7.65625 51.328125 -4.59375 C 48.304688 -1.53125 43.859375 0 37.984375 0 L 24.078125 0 C 18.285156 0 13.859375 -1.53125 10.796875 -4.59375 C 7.734375 -7.65625 6.203125 -12.082031 6.203125 -17.875 Z M 27.3125 -16.015625 L 35.25 -16.015625 C 38.5625 -16.015625 40.21875 -17.671875 40.21875 -20.984375 L 40.21875 -65.921875 C 40.21875 -69.234375 38.5625 -70.890625 35.25 -70.890625 L 27.3125 -70.890625 C 24 -70.890625 22.34375 -69.234375 22.34375 -65.921875 L 22.34375 -20.984375 C 22.34375 -17.671875 24 -16.015625 27.3125 -16.015625 Z M 27.3125 -16.015625 "/></g></g><g style="fill:#ffffff;fill-opacity:1;"><g transform="translate(225.101127, 123.281245)"><path style="stroke:none" d="M 47.546875 -86.90625 L 58.84375 -86.90625 C 60.75 -86.90625 61.492188 -85.992188 61.078125 -84.171875 L 41.34375 -2.234375 C 41.007812 -0.742188 40.097656 0 38.609375 0 L 26.1875 0 C 24.78125 0 23.875 -0.742188 23.46875 -2.234375 L 3.84375 -84.171875 C 3.4375 -85.992188 4.179688 -86.90625 6.078125 -86.90625 L 17.375 -86.90625 C 18.863281 -86.90625 19.773438 -86.15625 20.109375 -84.65625 L 32.40625 -28.546875 L 44.8125 -84.65625 C 45.226562 -86.15625 46.140625 -86.90625 47.546875 -86.90625 Z M 47.546875 -86.90625 "/></g></g><g style="fill:#ffffff;fill-opacity:1;"><g transform="translate(290.02154, 123.281245)"><path style="stroke:none" d="M 64.796875 0 L 52.765625 0 C 51.679688 0 51.019531 -0.578125 50.78125 -1.734375 L 46.796875 -17.375 L 23.46875 -17.375 L 19.609375 -1.734375 C 19.359375 -0.578125 18.695312 0 17.625 0 L 5.46875 0 C 3.976562 0 3.4375 -0.703125 3.84375 -2.109375 L 24.453125 -85.15625 C 24.703125 -86.320312 25.40625 -86.90625 26.5625 -86.90625 L 43.828125 -86.90625 C 44.984375 -86.90625 45.6875 -86.320312 45.9375 -85.15625 L 66.546875 -2.109375 C 66.953125 -0.703125 66.367188 0 64.796875 0 Z M 42.953125 -31.78125 L 35.125 -65.546875 L 27.3125 -31.78125 Z M 42.953125 -31.78125 "/></g></g><g clip-rule="nonzero" clip-path="url(#285d940829)"><path style=" stroke:none;fill-rule:nonzero;fill:#ffffff;fill-opacity:1;" d="M 114.355469 1.421875 C 123.082031 1.421875 126.683594 1.65625 136.285156 16.195312 C 136.285156 16.195312 141.460938 23.226562 147.742188 22.871094 C 147.742188 22.871094 152.046875 23.820312 155.882812 14.765625 C 159.722656 5.710938 162.863281 0.703125 172.632812 2.015625 C 172.632812 2.015625 168.097656 6.066406 167.457031 7.792969 C 166.816406 9.523438 156.425781 22.394531 150.746094 23.285156 C 151.582031 23.523438 152.746094 23.820312 154.71875 23.464844 C 154.71875 23.464844 156.753906 23.585938 157.074219 24.597656 C 155.070312 24.417969 148.4375 26.445312 147.042969 27.519531 C 145.648438 28.59375 140.867188 31.460938 137.03125 28.535156 C 137.851562 28.414062 142.445312 27.546875 144.566406 25.449219 C 140.996094 25.492188 135.0625 24.300781 130.640625 20.070312 C 126.222656 15.839844 115.519531 3.085938 109.816406 2.132812 L 114.355469 1.421875 "/></g></g></svg>